[img]http://img7.imageshack.us/img7/7210/dredd3d.jpg[/img]

[b][size=200][color=black]PLOT[/color][/size][/b]

[code]In a violent, futuristic city where the police have the
authority to act as judge, jury and executioner, a cop teams 
with a trainee to take down a gang that deals the reality-altering 
drug, SLO-MO.[/code]

[b][size=200][color=black]IMDB[/color][/size][/b]

[code]http://www.imdb.com/title/tt1343727/[/code]

[b][size=200][color=black]MOVIE INFO[/color][/size][/b]

[code]Dredd 3D [2012] BRRip x264 AAC-V3nom

Format                                   : MPEG-4
Format profile                           : Base Media / Version 2
Codec ID                                 : mp42
File size                                : 347 MiB
Duration                                 : 1h 35mn
Overall bit rate mode                    : Variable
Overall bit rate                         : 506 Kbps
Encoded date                             : UTC 2012-12-25 13:47:28
Tagged date                              : UTC 2012-12-25 14:27:27

Video
ID                                       : 1
Format                                   : AVC
Format/Info                              : Advanced Video Codec
Format profile                           : Main@L2.1
Format settings, CABAC                   : Yes
Format settings, ReFrames                : 4 frames
Codec ID                                 : avc1
Codec ID/Info                            : Advanced Video Coding
Duration                                 : 1h 35mn
Bit rate mode                            : Variable
Bit rate                                 : 378 Kbps
Width                                    : 640 pixels
Height                                   : 272 pixels
Display aspect ratio                     : 2.40:1
Frame rate mode                          : Variable
Frame rate                               : 23.976 fps
Minimum frame rate                       : 7.992 fps
Maximum frame rate                       : 23.981 fps
Color space                              : YUV
Chroma subsampling                       : 4:2:0
Bit depth                                : 8 bits
Scan type                                : Progressive
Bits/(Pixel*Frame)                       : 0.091
Stream size                              : 258 MiB (74%)
Writing library                          : x264 core 112

Audio
ID                                       : 2
Format                                   : AAC
Format/Info                              : Advanced Audio Codec
Format profile                           : LC
Codec ID                                 : 40
Duration                                 : 1h 34mn
Bit rate mode                            : Variable
Bit rate                                 : 128 Kbps
Maximum bit rate                         : 224 Kbps
Channel(s)                               : 2 channels
Channel positions                        : Front: L R
Sampling rate                            : 48.0 KHz
Compression mode                         : Lossy
Delay relative to video                  : 167ms
Stream size                              : 86.2 MiB (25%)
Language                                 : English
Encoded date                             : UTC 2012-12-25 13:47:28
Tagged date                              : UTC 2012-12-25 14:27:23[/code]

[b][size=200][color=black]SOURCE[/color][/size][/b]

[code]Dredd 3D (2012) 720p BrRip x264 - YIFY(Thanks)[/code]

[b][size=200][color=black]SCREENSHOTS[/color][/size][/b]

[img]http://img846.imageshack.us/img846/7631/dredd2012brripx264aacv3.jpg[/img]

[img]http://kastatic.com/i2/users/133df62bbf28e62494bb17fe11078f1a.gif[/img][img]http://kastatic.com/i2/users/133df62bbf28e62494bb17fe11078f1a.gif[/img]